<mxfile host="app.diagrams.net" modified="2024-03-13T09:33:48.122Z" agent="Mozilla/5.0 (Windows NT 10.0; Win64; x64) AppleWebKit/537.36 (KHTML, like Gecko) Chrome/122.0.0.0 Safari/537.36" etag="iQIAf2g3l3f9dFbygrKN" version="24.0.5" type="github">
  <diagram id="C5RBs43oDa-KdzZeNtuy" name="Page-1">
    <mxGraphModel dx="2261" dy="780" grid="1" gridSize="10" guides="1" tooltips="1" connect="1" arrows="1" fold="1" page="1" pageScale="1" pageWidth="827" pageHeight="1169" math="0" shadow="0">
      <root>
        <mxCell id="WIyWlLk6GJQsqaUBKTNV-0" />
        <mxCell id="WIyWlLk6GJQsqaUBKTNV-1" parent="WIyWlLk6GJQsqaUBKTNV-0" />
        <mxCell id="dmr-9X637sn1EO4gZVLF-7" value="" style="edgeStyle=orthogonalEdgeStyle;rounded=0;orthogonalLoop=1;jettySize=auto;html=1;" edge="1" parent="WIyWlLk6GJQsqaUBKTNV-1" source="dmr-9X637sn1EO4gZVLF-0" target="dmr-9X637sn1EO4gZVLF-3">
          <mxGeometry relative="1" as="geometry" />
        </mxCell>
        <mxCell id="dmr-9X637sn1EO4gZVLF-0" value="Shake microbit" style="rounded=0;whiteSpace=wrap;html=1;" vertex="1" parent="WIyWlLk6GJQsqaUBKTNV-1">
          <mxGeometry x="-510" y="130" width="120" height="70" as="geometry" />
        </mxCell>
        <mxCell id="dmr-9X637sn1EO4gZVLF-11" value="" style="edgeStyle=orthogonalEdgeStyle;rounded=0;orthogonalLoop=1;jettySize=auto;html=1;" edge="1" parent="WIyWlLk6GJQsqaUBKTNV-1" source="dmr-9X637sn1EO4gZVLF-3" target="dmr-9X637sn1EO4gZVLF-10">
          <mxGeometry relative="1" as="geometry" />
        </mxCell>
        <mxCell id="dmr-9X637sn1EO4gZVLF-3" value="steps=steps+1" style="rounded=0;whiteSpace=wrap;html=1;" vertex="1" parent="WIyWlLk6GJQsqaUBKTNV-1">
          <mxGeometry x="-510" y="270" width="120" height="60" as="geometry" />
        </mxCell>
        <mxCell id="dmr-9X637sn1EO4gZVLF-9" value="" style="edgeStyle=orthogonalEdgeStyle;rounded=0;orthogonalLoop=1;jettySize=auto;html=1;" edge="1" parent="WIyWlLk6GJQsqaUBKTNV-1" source="dmr-9X637sn1EO4gZVLF-8" target="dmr-9X637sn1EO4gZVLF-0">
          <mxGeometry relative="1" as="geometry" />
        </mxCell>
        <mxCell id="dmr-9X637sn1EO4gZVLF-8" value="steps=0" style="shape=parallelogram;perimeter=parallelogramPerimeter;whiteSpace=wrap;html=1;fixedSize=1;" vertex="1" parent="WIyWlLk6GJQsqaUBKTNV-1">
          <mxGeometry x="-510" y="10" width="120" height="60" as="geometry" />
        </mxCell>
        <mxCell id="dmr-9X637sn1EO4gZVLF-13" value="" style="edgeStyle=orthogonalEdgeStyle;rounded=0;orthogonalLoop=1;jettySize=auto;html=1;" edge="1" parent="WIyWlLk6GJQsqaUBKTNV-1" source="dmr-9X637sn1EO4gZVLF-10" target="dmr-9X637sn1EO4gZVLF-12">
          <mxGeometry relative="1" as="geometry" />
        </mxCell>
        <mxCell id="dmr-9X637sn1EO4gZVLF-10" value="if time=24" style="rhombus;whiteSpace=wrap;html=1;" vertex="1" parent="WIyWlLk6GJQsqaUBKTNV-1">
          <mxGeometry x="-490" y="380" width="80" height="80" as="geometry" />
        </mxCell>
        <mxCell id="dmr-9X637sn1EO4gZVLF-12" value="steps sent to second microbit" style="rounded=0;whiteSpace=wrap;html=1;" vertex="1" parent="WIyWlLk6GJQsqaUBKTNV-1">
          <mxGeometry x="-510" y="530" width="120" height="60" as="geometry" />
        </mxCell>
      </root>
    </mxGraphModel>
  </diagram>
</mxfile>
